# xmcd
#
# Track frame offsets: 
#        150
#        18091
#        38413
#        58118
#        77993
#        93589
#        112725
#        130988
#        146162
#        161841
#        180192
#        204193
#        220674
#        239859
#        256172
#        272252
#        290313
#
# Disc length: 4118 seconds
#
# Revision: 3
# Processed by: cddbd v1.5.2PL0 Copyright (c) Steve Scherf et al.
# Submitted via: ExactAudioCopy v1.0b3
#
DISCID=e4101411
DTITLE=Various Artist - Sanremo 2001
DYEAR=2001
DGENRE=Italo
TTITLE0=Alex Britti - Sono contento
TTITLE1=Fabio Concato - Ciao Ninin
TTITLE2=Elisa - Luce (Tramonti a Nord Est )
TTITLE3=Sonique - Sky
TTITLE4=Carlotta - Promessa
TTITLE5=Jenny B - Anche tu
TTITLE6=Kelly Joyce - Vivre la vie
TTITLE7=Velvet (02) - Nascosto dietro un vetro
TTITLE8=Francesco Renga - Raccontami...
TTITLE9=Shivaree - Goodnight Moon
TTITLE10=Roberto Angelini - Il signor domani
TTITLE11=Ronan Keating - The Way You Make Me Feel
TTITLE12=Quintorigo - Bentivoglio Angelina
TTITLE13=Francesco and Giada - Turuturu
TTITLE14=Gazosa - Stai con me (Forever)
TTITLE15=Moby - Porcelain
TTITLE16=Placebo - Slave To The Wage
EXTD=
EXTT0=
EXTT1=
EXTT2=
EXTT3=
EXTT4=
EXTT5=
EXTT6=
EXTT7=
EXTT8=
EXTT9=
EXTT10=
EXTT11=
EXTT12=
EXTT13=
EXTT14=
EXTT15=
EXTT16=
PLAYORDER=
